<svg xmlns="http://www.w3.org/2000/svg" width="700" height="760" viewBox="0 0 700 760">
<defs><linearGradient id="bg" x1="0" y1="0" x2="1" y2="1"><stop stop-color="#f5eee8"/><stop offset="1" stop-color="#e7d5c9"/></linearGradient><filter id="s"><feDropShadow dx="0" dy="18" stdDeviation="18" flood-color="#5d3344" flood-opacity=".16"/></filter></defs>
<rect width="700" height="760" rx="40" fill="url(#bg)"/><circle cx="95" cy="110" r="80" fill="#fff" fill-opacity=".18"/><circle cx="610" cy="650" r="145" fill="#fff" fill-opacity=".12"/>
<g filter="url(#s)"><g transform="rotate(-10 230 180)"><ellipse cx="230" cy="180" rx="50.0" ry="62.5" fill="#d4b8a7"/><path d="M230 240.5 l-8 12 h16z" fill="#d4b8a7"/><path d="M230 250.5 C200 400,270 480,230 620" fill="none" stroke="#6e5c65" stroke-opacity=".35" stroke-width="2"/></g><g transform="rotate(4 360 110)"><ellipse cx="360" cy="110" rx="52.5" ry="66.0" fill="#f5dfd2"/><path d="M360 174.0 l-8 12 h16z" fill="#f5dfd2"/><path d="M360 184.0 C330 330,400 410,360 620" fill="none" stroke="#6e5c65" stroke-opacity=".35" stroke-width="2"/></g><g transform="rotate(10 490 190)"><ellipse cx="490" cy="190" rx="49.0" ry="61.0" fill="#e9c6d1"/><path d="M490 249.0 l-8 12 h16z" fill="#e9c6d1"/><path d="M490 259.0 C460 410,530 490,490 620" fill="none" stroke="#6e5c65" stroke-opacity=".35" stroke-width="2"/></g><g transform="rotate(-5 320 270)"><ellipse cx="320" cy="270" rx="46.0" ry="57.5" fill="#fff"/><path d="M320 325.5 l-8 12 h16z" fill="#fff"/><path d="M320 335.5 C290 490,360 570,320 620" fill="none" stroke="#6e5c65" stroke-opacity=".35" stroke-width="2"/></g><g transform="rotate(8 450 310)"><ellipse cx="450" cy="310" rx="44.0" ry="55.0" fill="#cab2a3"/><path d="M450 363.0 l-8 12 h16z" fill="#cab2a3"/><path d="M450 373.0 C420 530,490 610,450 620" fill="none" stroke="#6e5c65" stroke-opacity=".35" stroke-width="2"/></g><circle cx="350" cy="300" r="145" fill="#fff" fill-opacity=".35" stroke="#fff" stroke-width="8"/><circle cx="310" cy="255" r="16" fill="#fff" fill-opacity=".65"/><text x="350" y="292" text-anchor="middle" font-family="Arial,sans-serif" font-size="34" font-weight="700" fill="#6f5560">Happy</text><text x="350" y="334" text-anchor="middle" font-family="Arial,sans-serif" font-size="34" font-weight="700" fill="#6f5560">Birthday!</text></g>
<text x="350" y="705" text-anchor="middle" font-family="Arial,sans-serif" font-size="17" letter-spacing="4" fill="#fff" fill-opacity=".78">PERSONAL BUBBLE</text></svg>